<?xml version="1.0" standalone="no"?>
<!DOCTYPE svg PUBLIC "-//W3C//DTD SVG 20010904//EN"
 "http://www.w3.org/TR/2001/REC-SVG-20010904/DTD/svg10.dtd">
<svg version="1.0" xmlns="http://www.w3.org/2000/svg"
 width="280.000000pt" height="280.000000pt" viewBox="0 0 280.000000 280.000000"
 preserveAspectRatio="xMidYMid meet">
<metadata>
Created by potrace 1.11, written by Peter Selinger 2001-2013
</metadata>
<g transform="translate(0.000000,280.000000) scale(0.100000,-0.100000)"
fill="#000000" stroke="none">
<path d="M1185 2784 c-589 -102 -1028 -521 -1156 -1105 -19 -83 -23 -136 -23
-264 -1 -172 5 -232 35 -350 36 -144 107 -306 185 -426 26 -41 51 -76 54 -79
3 -3 21 -25 42 -50 214 -264 543 -449 883 -496 68 -10 306 -11 380 -2 148 18
320 74 464 150 103 55 123 68 224 146 262 205 453 530 512 872 11 63 13 334 4
395 -6 33 -12 74 -14 90 -7 54 -55 207 -92 293 -123 285 -355 536 -632 681
-94 49 -269 114 -341 126 -19 3 -55 11 -80 17 -70 16 -353 17 -445 2z m419
-613 c271 -71 494 -294 567 -568 28 -104 30 -289 5 -383 -10 -36 -19 -72 -21
-82 -6 -29 -62 -135 -103 -195 -45 -66 -131 -153 -194 -196 -67 -46 -198 -105
-274 -123 -73 -17 -238 -23 -313 -11 -63 10 -161 38 -167 48 -3 5 -11 9 -19 9
-22 0 -134 69 -195 119 -31 25 -76 70 -101 101 -49 59 -119 173 -119 194 0 6
-4 16 -10 22 -19 19 -51 171 -54 259 -4 110 6 187 35 280 25 76 84 187 132
249 119 151 322 271 497 293 25 3 46 7 48 8 12 10 221 -7 286 -24z"/>
</g>
</svg>
