<?xml version="1.0" standalone="no"?>
<!DOCTYPE svg PUBLIC "-//W3C//DTD SVG 20010904//EN"
 "http://www.w3.org/TR/2001/REC-SVG-20010904/DTD/svg10.dtd">
<svg version="1.0" xmlns="http://www.w3.org/2000/svg"
 width="280.000000pt" height="280.000000pt" viewBox="0 0 280.000000 280.000000"
 preserveAspectRatio="xMidYMid meet">
<metadata>
Created by potrace 1.11, written by Peter Selinger 2001-2013
</metadata>
<g transform="translate(0.000000,280.000000) scale(0.100000,-0.100000)"
fill="#000000" stroke="none">
<path d="M1105 2789 c-94 -14 -162 -37 -280 -94 -211 -102 -414 -262 -541
-426 -112 -145 -211 -350 -259 -534 -25 -98 -26 -106 -21 -355 4 -237 6 -261
29 -335 48 -154 119 -309 190 -415 90 -133 293 -333 422 -415 124 -79 342
-167 495 -200 88 -19 432 -13 550 9 187 34 395 128 560 253 64 48 215 198 265
263 134 175 251 425 273 587 11 75 8 515 -3 578 -20 117 -109 321 -201 462
-146 226 -352 406 -595 521 -214 102 -254 110 -564 110 -143 0 -287 -4 -320
-9z m531 -673 c269 -98 478 -348 501 -600 5 -44 5 -130 2 -191 -5 -93 -11
-122 -39 -188 -85 -203 -225 -347 -416 -427 -87 -36 -173 -50 -307 -51 -188 0
-356 72 -499 214 -78 78 -119 135 -158 220 -50 110 -61 165 -62 304 -1 168 22
255 106 398 109 185 340 337 526 344 36 2 66 3 67 4 1 1 50 1 108 -1 81 -2
123 -9 171 -26z"/>
</g>
</svg>
